<svg width="2703" height="3078" viewBox="0 0 2703 3078" fill="none" xmlns="http://www.w3.org/2000/svg">
<path d="M1296.06 0.412746L1297.93 0.240749C1347.07 -3.81625 1381.26 44.2417 1406.31 80.9877C1485.17 196.683 1479.32 356.361 1443.16 486C1440.39 495.93 1426.25 528.67 1429.16 536.4C1439.61 557.23 1465.07 574.83 1482.11 591.56C1494.23 603.45 1532.73 654.02 1547.25 652.4C1566.4 639.18 1579.02 599.77 1587.88 578.25C1639.71 452.25 1651.96 344.212 1633.59 209.301C1630.4 185.85 1628.2 160.312 1622.09 137.473C1615.32 112.215 1601.87 88.7327 1591.9 64.6297C1587.01 52.8077 1577.07 29.0438 1584.42 17.0348C1587.41 12.1568 1589.99 10.3437 1595.54 9.06173C1605.97 6.65273 1621 15.0547 1629.37 20.2537C1652.92 34.8787 1669.94 58.9898 1683.66 82.5608C1762.71 218.389 1734.87 440.76 1691.7 585.62C1682.87 615.24 1671.86 644.68 1657.61 672.15C1647.27 692.08 1634.56 711.25 1625.41 731.72C1623.07 736.97 1618.65 746.15 1619.99 752.11C1623.57 768.03 1668.46 838.22 1679.72 860.12C1706.49 911.35 1728.53 964.91 1745.55 1020.14C1763.63 1078.17 1781.11 1159.85 1787.98 1220.08C1790.24 1240.24 1792.19 1260.42 1793.84 1280.64C1794.94 1295.91 1791.92 1329.26 1805.25 1336.69C1821.46 1334.25 1868.52 1277.85 1881.36 1262.39C1917.68 1218.65 1953.79 1169.07 1977.48 1117.16C1984.48 1098.81 1985.86 1078.14 1989.28 1058.87C1993.84 1033.23 2001.6 1006.15 2003.18 980.29C2007.57 908.41 2013.89 838.83 2038.53 770.54C2082.66 648.29 2172.11 537.22 2290.96 481.36C2324.1 465.77 2356 458.14 2392.1 471.28C2405.89 476.29 2420.35 487.72 2425.52 502.15C2447.23 562.81 2367.85 586.4 2349.31 633.85C2340.01 657.65 2355.43 680.99 2358.81 704.53C2361.43 722.73 2361.62 738.03 2359.54 756.24C2356.7 775.26 2346.43 796.51 2339.58 814.4C2335.81 824.24 2334.98 824.04 2338.25 831.52C2340.97 833.63 2342.03 835.34 2344.84 835.33C2358.18 835.27 2373.12 815.28 2379.24 804.86C2398.96 771.32 2423.76 741.11 2456.05 718.99C2475.01 705.99 2492.88 697.11 2508.59 679.91C2502.49 645.01 2491.76 554.37 2514.02 524.73C2584.55 430.87 2676.19 523.43 2693.24 609.33C2723.47 761.57 2674.98 927.97 2595 1058.18C2534.48 1156.48 2443.92 1246.12 2341.49 1298.54C2320.59 1308.7 2289.05 1312.99 2266.17 1318.44C2259.8 1326.05 2255.02 1335.62 2248.97 1343.54C2126.79 1503.51 1972.71 1635.8 1803.7 1744.13C1791.62 1752.02 1739.51 1775.75 1732.98 1782.8C1721.87 1794.76 1581.41 1918.42 1580.8 1919.96C1587.18 1930.17 1642.49 1957.15 1658.55 1966.49C1865.18 2091.58 1911.81 2280.73 1891.34 2509.03C1887.81 2548.41 1879.08 2583.07 1869.94 2621.24C1976.53 2655.94 2100.39 2738.46 2108.89 2861.91C2114.86 2948.57 2047.46 3005.39 1966.7 3018.22C1798.17 3045 1624.38 3066.18 1453.63 3073.03C1134.85 3083.43 815.733 3075.47 497.863 3049.19C465.303 3046.26 348.543 3038.35 327.543 3018.98C324.973 3010.99 325.273 3015.01 327.123 3006.44C344.533 2986.7 480.243 2971.28 511.603 2965.85C525.613 2963.43 562.603 2961.95 573.603 2955.93L573.753 2952.8C561.323 2943.89 529.453 2930.5 514.193 2922.98C480.303 2906.28 448.233 2886.11 418.513 2862.79C371.343 2826.01 352.473 2799.67 319.783 2751.99C312.563 2741.45 267.053 2718.13 253.183 2706.56C173.907 2640.42 128.746 2543.63 105.059 2444.87C96.7786 2409.35 91.9376 2365.35 87.2216 2329.33C-17.4444 2214.94 -10.8414 1981.96 19.5176 1835.95C26.1046 1804.27 40.5426 1771.95 55.5446 1743.32C29.0416 1654.04 24.3456 1565.65 41.1266 1474.08C70.5356 1313.6 130.184 1157.17 195.804 1008.35C248.363 889.13 310.483 769.04 395.433 669.46C440.363 617.83 492.013 572.45 549.003 534.53C702.573 431.44 867.543 393.83 1050.79 413.35C1129.94 421.78 1197.37 431.78 1272.49 461.16C1286.92 466.8 1341.44 491.62 1351.9 487.71C1359.48 477.72 1363.17 463.98 1365.76 452.48C1397.63 311.02 1379.62 153.725 1288.47 36.9557C1278.08 23.6447 1279.79 9.24075 1296.06 0.412746Z" fill="#050048"/>
<path d="M734.213 548.65C884.423 493.84 1030.47 488.37 1185.36 531.03C1207.98 537.26 1287.15 563.16 1298.18 584.57C1298.78 603.73 1256.33 641.08 1244.27 656.49C1219.49 688.17 1142.84 726.48 1193.04 772.63C1242.12 817.76 1292.99 748.58 1321.59 715.85C1335.31 700.15 1368.17 643.22 1379.41 639.3C1401.74 644.51 1464.81 710.45 1479.67 730.24C1665.79 948.14 1721.97 1241.19 1700.13 1520.04C1689.64 1654.01 1624.71 1771.55 1511.25 1843.82C1497.98 1852.27 1475.15 1862.21 1464.95 1872.1C1457.13 1878.74 1453.99 1881.34 1445.21 1886.52C1409.6 1888.02 1381.53 1882.75 1347.47 1881.71C1304.78 1880.41 1247.02 1889.37 1204.72 1898.3C1126.07 1925.3 1069.84 1953.6 1012.15 2016.24C997.222 2032.44 981.163 2054.28 967.693 2068.78C926.063 2078.33 851.283 2081.6 806.812 2079.39C785.513 2044.64 743.833 1960.53 725.973 1922.47C704.973 1877.52 673.273 1827.63 619.473 1825.8C550.523 1825.2 519.572 1892.39 521.052 1952.63C521.382 1966.03 526.553 1994.54 516.233 2002.2C491.793 2003.58 407.292 1964.04 383.192 1950.39C271.652 1887.2 178.942 1803.49 143.481 1676.6C132.403 1635.67 128.615 1593.11 132.291 1550.87C140.699 1448.01 223.26 1166.7 272.152 1079.11C296.332 990.62 429.352 767.57 499.712 704.79C565.462 636.16 645.523 582.85 734.213 548.65Z" fill="#04D3B4"/>
<path d="M786.533 1837.91C812.943 1837.69 834.073 1836.7 860.393 1834.09C1076.16 1812.8 1282.37 1734.48 1457.88 1607.18C1541.43 1545.7 1612.52 1477.37 1657.45 1382.53C1664.35 1367.99 1681.8 1315.22 1689.2 1306.21C1692.14 1309.5 1691.59 1315.17 1692.16 1320.71C1693.1 1328.01 1694.54 1332.05 1690.96 1338.34L1690.78 1336.62C1686.96 1356.8 1689.76 1371.34 1690.1 1391.63C1690.25 1413.73 1690.26 1435.83 1690.13 1457.93C1689.65 1504.57 1682.41 1563.74 1668.87 1608.58C1665.99 1618.11 1659.23 1630.76 1654.7 1639.69C1652.4 1644.22 1653.58 1652 1650.56 1658.99C1623.62 1721.39 1590.83 1755.91 1543.55 1803.27C1539.98 1806.85 1537.11 1808.13 1532.58 1809.99C1515.83 1816.86 1496.56 1835.36 1481.15 1847.74L1483.9 1846.29C1450.66 1869.5 1443.68 1866.69 1405.68 1868.76C1419.89 1871.36 1425.31 1870.78 1438.02 1872.3L1458.04 1862.59C1440.72 1885.44 1411.16 1870.1 1388.63 1875.52C1411.83 1877.91 1437.34 1881.39 1459.21 1872.98C1461.68 1872.02 1461.84 1872.3 1464.95 1872.1C1457.13 1878.74 1453.99 1881.34 1445.21 1886.52C1409.6 1888.02 1381.53 1882.75 1347.47 1881.71C1304.78 1880.41 1247.02 1889.37 1204.72 1898.3C1126.07 1925.3 1069.84 1953.6 1012.15 2016.24C997.223 2032.44 981.163 2054.28 967.693 2068.78C926.063 2078.33 851.283 2081.6 806.813 2079.39C785.513 2044.64 743.833 1960.53 725.973 1922.47C730.653 1921.52 730.513 1921.73 734.523 1919.21C736.893 1911.46 732.663 1904.57 732.103 1895.08C724.993 1882.86 710.533 1857.88 697.533 1851.39C690.933 1848.1 687.653 1847.79 685.963 1840.47C692.273 1837.13 767.703 1841.56 786.533 1837.91Z" fill="#069F8C"/>
<path d="M995.053 2012.11C1023.19 1972.48 1079.8 1934.16 1122.77 1912.05L1127.12 1912.33C1124.75 1914.75 1122.99 1917.32 1121.22 1920.2C1130.32 1920.8 1185.14 1892.47 1198.21 1889.32C1211.55 1886.11 1226.35 1884.28 1239.47 1880.21C1246.5 1878.03 1282.8 1873.26 1288.04 1874.07C1277.55 1880.69 1219.05 1881.05 1204.72 1898.3C1126.07 1925.3 1069.84 1953.6 1012.15 2016.24C997.223 2032.44 981.163 2054.28 967.693 2068.78C926.063 2078.33 851.283 2081.6 806.813 2079.39C785.513 2044.64 743.833 1960.53 725.973 1922.47C730.653 1921.52 730.513 1921.73 734.523 1919.21C736.893 1911.46 732.663 1904.57 732.103 1895.08C751.973 1918.29 761.243 1971.92 782.813 1997.08C798.313 2015.16 809.393 2044.34 824.583 2061.19L820.563 2065.6L822.773 2068.41L818.723 2070.7C835.803 2074.7 942.423 2067.59 957.813 2062.67C972.183 2046.21 976.743 2021.5 997.993 2009.85C1000.14 2013.34 999.143 2011.91 998.203 2017.88C1004.41 2012.65 1008.01 2007.67 1013.1 2001.38C1009.18 2000.75 999.253 2009.1 995.053 2012.11Z" fill="#08A690"/>
<path d="M1479.67 730.24C1665.79 948.139 1721.97 1241.19 1700.13 1520.04C1689.64 1654.01 1624.71 1771.55 1511.25 1843.82C1497.98 1852.27 1475.15 1862.21 1464.95 1872.1C1461.84 1872.3 1461.68 1872.02 1459.21 1872.98C1437.34 1881.39 1411.83 1877.91 1388.63 1875.52C1411.16 1870.1 1440.72 1885.44 1458.04 1862.59L1438.02 1872.3C1425.31 1870.78 1419.89 1871.36 1405.68 1868.76C1443.68 1866.69 1450.66 1869.5 1483.9 1846.29L1481.15 1847.74C1496.56 1835.36 1515.83 1816.86 1532.58 1809.99C1537.11 1808.13 1539.98 1806.85 1543.55 1803.27C1590.83 1755.91 1623.62 1721.39 1650.56 1658.99C1653.58 1652 1652.4 1644.22 1654.7 1639.69C1659.23 1630.76 1665.99 1618.11 1668.87 1608.58C1682.41 1563.74 1689.65 1504.57 1690.13 1457.93C1690.26 1435.83 1690.25 1413.73 1690.1 1391.63C1689.76 1371.34 1686.96 1356.8 1690.78 1336.62L1690.96 1338.34C1694.54 1332.05 1693.1 1328.01 1692.16 1320.71C1695.97 1297.49 1687.71 1296.12 1680.07 1270.82C1688.74 1256.46 1683.67 1242.27 1682.67 1224.03C1677.72 1231.17 1683.09 1252.53 1678.54 1262.31C1679.02 1222.7 1670.06 1177.93 1666.32 1137.75L1664.71 1138.28C1665.38 1149.75 1652.24 1176.08 1645.79 1185.78C1641.99 1191.5 1633.14 1208.37 1630.74 1211.28C1617.65 1227.2 1576.68 1253.85 1560.1 1262.99C1538.39 1274.96 1468.13 1275.67 1444.96 1266.96C1396.58 1248.78 1357.99 1210.05 1334.91 1164.28C1332.89 1160.29 1332.16 1159.96 1331.16 1155.3C1319.23 1099.84 1317.39 1056.43 1348.39 1006.47C1369.1 973.069 1407.05 941.36 1445.65 932.52C1482.76 924.02 1545.83 938.9 1579.44 956.31C1585.26 959.32 1592.62 966.969 1599.98 971.569C1617.26 985.069 1619.08 993.93 1632.09 1005.26C1619.22 959.72 1568.12 870.29 1543.4 827.02C1531.11 805.51 1485.38 751.18 1479.67 730.24Z" fill="#16BEA5"/>
<path d="M1604.11 984.93C1651.08 1024.34 1664.79 1110.07 1641.41 1164.58C1607.7 1243.18 1515.08 1280.43 1436.73 1246.97C1397.41 1230.04 1366.5 1198.08 1350.87 1158.23C1335.46 1119.28 1334.3 1072.41 1351.63 1033.88C1369.72 994.57 1402.66 964.03 1443.24 948.97C1484.32 933.7 1522.47 936.46 1561.89 954.3C1579.41 963.06 1589.41 971.98 1604.11 984.93Z" fill="#050048"/>
<path d="M1591.28 989.39C1601.47 1014.31 1592.72 1042.96 1570.35 1057.94C1547.97 1072.91 1518.16 1070.08 1499 1051.17C1479.84 1032.26 1476.63 1002.48 1491.32 979.91C1506.01 957.35 1534.54 948.24 1559.59 958.11L1561.89 954.3C1579.41 963.06 1589.41 971.98 1604.11 984.93C1599.37 987.37 1596.61 989.39 1591.28 989.39Z" fill="#FEFEFE"/>
<path d="M1561.89 954.3C1579.41 963.06 1589.41 971.98 1604.11 984.93C1599.37 987.37 1596.61 989.39 1591.28 989.39C1585.43 975.08 1573.98 963.779 1559.59 958.109L1561.89 954.3Z" fill="#02033C"/>
<path d="M725.973 1922.47C704.973 1877.52 673.273 1827.63 619.473 1825.8C550.523 1825.2 519.572 1892.39 521.052 1952.63C521.382 1966.03 526.553 1994.54 516.233 2002.2C491.793 2003.58 407.292 1964.04 383.192 1950.39C271.652 1887.2 178.942 1803.49 143.481 1676.6C132.403 1635.67 128.615 1593.11 132.291 1550.87C140.699 1448.01 223.26 1166.7 272.152 1079.11C268.552 1094.74 255.042 1125.4 248.522 1141.82C236.904 1171.1 229.422 1193.49 222.205 1224.5C215.025 1236.76 179.469 1358.63 174.166 1382.28C173.318 1386.05 181.736 1428.41 182.977 1437.69C188.956 1461.56 192.852 1488.57 200.963 1511.45C263.123 1686.74 397.532 1778.17 571.172 1821.92C579.932 1822.59 584.442 1823.32 593.032 1822.04L583.442 1819.76C583.402 1807.02 610.342 1802.89 619.172 1806.02C631.972 1810.56 642.042 1814.43 655.402 1817.39L656.353 1820.53C650.643 1824.03 646.132 1823.26 639.332 1823.3C672.952 1842.36 747.522 1836.17 786.532 1837.91C767.702 1841.56 692.273 1837.13 685.963 1840.47C687.653 1847.79 690.932 1848.1 697.532 1851.39C710.532 1857.88 724.993 1882.86 732.103 1895.08C732.663 1904.57 736.892 1911.46 734.522 1919.21C730.512 1921.73 730.653 1921.52 725.973 1922.47Z" fill="#08A690"/>
<path d="M725.973 1922.47C704.973 1877.52 673.273 1827.63 619.473 1825.8C550.523 1825.2 519.572 1892.39 521.052 1952.63C521.382 1966.03 526.553 1994.54 516.233 2002.2C491.793 2003.58 407.292 1964.04 383.192 1950.39C271.652 1887.2 178.942 1803.49 143.481 1676.6C132.403 1635.67 128.615 1593.11 132.291 1550.87C140.699 1448.01 223.26 1166.7 272.152 1079.11C268.552 1094.74 255.042 1125.4 248.522 1141.82C236.904 1171.1 229.422 1193.49 222.205 1224.5C215.025 1236.76 179.469 1358.63 174.166 1382.28C173.318 1386.05 181.736 1428.41 182.977 1437.69L180.417 1435.47L179.806 1433.27C178.337 1428.12 178.125 1424.97 174.237 1421.51C169.012 1426.39 170.23 1437.21 167.619 1444.41C157.843 1471.4 149.672 1517 148.616 1545.69C146.931 1588.1 151.98 1630.5 163.575 1671.33C166.775 1682.88 167.456 1694.72 171.916 1706.4C187.554 1746.71 218.631 1795.78 248.302 1826.87C301.732 1882.87 365.002 1931.38 437.832 1958.17C463.742 1967.7 468.122 1980.85 500.272 1981.98L500.873 1983.81L505.572 1981.09L502.432 1991.97L504.032 1994.33L510.442 1993.49C515.352 1967.81 505.492 1917.69 521.822 1890.21L521.462 1886.63C511.972 1892.37 508.352 1928.95 506.642 1940.33C502.652 1903.85 516.262 1874.51 538.422 1846.96C551.042 1831.28 568.862 1833.86 571.172 1821.92C579.932 1822.59 584.442 1823.32 593.032 1822.04L583.442 1819.76C583.402 1807.02 610.342 1802.89 619.172 1806.02C631.972 1810.56 642.042 1814.43 655.402 1817.39L656.353 1820.53C650.643 1824.03 646.132 1823.26 639.332 1823.3C672.952 1842.36 747.522 1836.17 786.532 1837.91C767.702 1841.56 692.273 1837.13 685.963 1840.47C687.653 1847.79 690.932 1848.1 697.532 1851.39C710.532 1857.88 724.993 1882.86 732.103 1895.08C732.663 1904.57 736.892 1911.46 734.522 1919.21C730.512 1921.73 730.653 1921.52 725.973 1922.47Z" fill="#16BEA5"/>
<path d="M583.443 1819.76C593.683 1811.21 610.003 1808.15 622.673 1812.58L623.023 1815.37C615.123 1820.41 602.613 1820.86 593.033 1822.04L583.443 1819.76Z" fill="#49E6CE"/>
<path d="M734.213 548.65C884.423 493.84 1030.47 488.37 1185.36 531.03C1207.98 537.26 1287.15 563.16 1298.18 584.57C1298.78 603.73 1256.33 641.08 1244.27 656.49C1219.49 688.17 1142.84 726.48 1193.04 772.63C1242.12 817.76 1292.99 748.58 1321.59 715.85C1335.31 700.15 1368.17 643.22 1379.41 639.3C1401.74 644.51 1464.81 710.45 1479.67 730.24C1485.38 751.18 1531.11 805.51 1543.4 827.02C1568.12 870.29 1619.22 959.72 1632.09 1005.26C1619.08 993.93 1617.26 985.07 1599.98 971.57C1600.8 966.96 1601.84 964.73 1603.95 960.55C1596.91 921.66 1523.06 815.23 1495.86 781.99C1470.57 751.08 1428.16 704.41 1396.4 681.91C1389.89 677.3 1381.18 671.14 1372.77 672.91C1350.29 677.61 1306.98 794.23 1229.37 798.99C1221.24 799.49 1210.68 799.87 1203.38 795.9C1186.84 786.93 1169.62 772.97 1164.27 754.22C1159.93 739.02 1162.97 722.36 1171.06 708.92C1183.16 688.79 1265.38 624.57 1264.14 606.09C1242.27 582.19 1103.19 557.24 1065.85 554.05C660.573 519.52 390.513 821.91 251.863 1168.96C247.373 1180.18 232.598 1224.2 224.075 1225.44L222.206 1224.5C229.423 1193.49 236.905 1171.1 248.523 1141.82C255.043 1125.4 268.553 1094.74 272.153 1079.11C296.333 990.62 429.353 767.57 499.713 704.79C565.463 636.16 645.523 582.85 734.213 548.65Z" fill="#72F8E6"/>
<path d="M734.213 548.65C770.703 551.83 880.452 496.95 918.672 519.77L919.993 521.65C897.723 529.22 867.543 526.769 844.193 536.819C832.493 541.849 807.952 536.19 794.022 541.89C785.062 545.57 775.582 551.28 766.912 554.8C737.222 566.86 709.202 582.22 680.632 596.93C661.552 606.76 632.212 618.669 614.762 630.339C585.682 649.779 554.082 690.34 521.922 706.31C509.992 712.24 503.162 726.69 493.282 728.54L491.343 726.3C495.303 719.74 496.353 718.559 501.583 712.859L499.713 704.79C565.463 636.16 645.523 582.85 734.213 548.65Z" fill="#C7FDF6"/>
<path d="M605.503 978.12C656.723 962.34 712.433 973.09 754.103 1006.81C811.513 1053.26 829.933 1132.83 798.773 1199.78C767.623 1266.73 694.893 1303.89 622.383 1289.89C549.873 1275.9 496.203 1214.34 492.203 1140.6C488.213 1066.86 534.923 999.87 605.503 978.12Z" fill="#050048"/>
<path d="M684.143 985.76C695.653 985.09 704.313 985.47 715.273 989.83C730.933 995.89 743.313 1008.29 749.343 1023.96C754.393 1037.13 753.733 1051.8 747.533 1064.46C737.913 1083.95 723.933 1090.13 705.073 1096.6C632.443 1110.61 604.083 1013.78 684.143 985.76Z" fill="#FEFEFE"/>
<path d="M947.042 1132.46C966.582 1123.43 974.232 1123.72 994.312 1128C1048.67 1162.77 1003.46 1199.42 1043.09 1233.86C1064 1252.02 1118.79 1245 1131.8 1219.24C1148.35 1193.13 1127.46 1132.67 1170.24 1126.87C1246.09 1116.6 1226.94 1224.06 1201.97 1260.26C1179.33 1292.61 1144.84 1314.72 1105.99 1321.78C1021.43 1336.77 943.482 1286.82 930.812 1200.47C927.772 1179.74 927.032 1159.53 939.782 1141.53C942.032 1138.38 944.452 1135.35 947.042 1132.46Z" fill="#050048"/>
<path d="M1007.99 604.6C1116.58 599.41 1133.36 702.44 1025.94 708.13C896.582 707.91 894.742 614.97 1007.99 604.6Z" fill="#72F8E6"/>
<path d="M1151.32 2027.98C1251.88 1969.63 1379.59 1966.16 1489.68 1995.68C1562.59 2015.52 1629.92 2051.96 1686.41 2102.13C1694.61 2110.48 1702.61 2118.24 1709.92 2127.39C1742.24 2158.08 1781.45 2252.22 1789.09 2297.41C1796.95 2330.21 1803.32 2360.4 1806.5 2394.08C1815.37 2487.88 1788.06 2603.08 1738.26 2683.84C1689.45 2761.58 1620.31 2824.5 1538.31 2865.76C1531.87 2869.06 1502.35 2884.31 1497.51 2884.73C1390.81 2946.76 1171.08 2953 1048.5 2947.04C1019.59 2945.63 895.202 2934.41 876.532 2914.47C878.782 2905.93 919.873 2865.31 930.203 2852.48C946.063 2827.9 959.912 2792.84 975.052 2772.8C994.842 2774.84 1020.51 2781.13 1041.04 2783.52C1131.76 2794.09 1167.45 2790.52 1248.65 2757.58C1251.93 2756.25 1255.13 2754.76 1258.25 2753.1C1284.96 2739.07 1299.31 2725.33 1307.72 2696.69C1307.42 2631.48 1239.61 2600.84 1193.26 2568.59C1181 2560.05 1163.6 2549.05 1155.83 2536.11L1156.85 2532.83C1175.93 2525.61 1313.51 2542.87 1342.34 2529.78C1345.21 2528.47 1371.9 2524.43 1375.68 2524.93C1377.71 2530.29 1377.52 2527.52 1374.96 2533.46C1363.19 2553.28 1339.3 2553.29 1336.58 2574.59C1336.67 2588.33 1354.47 2587.87 1363.92 2586.53C1387.45 2583.19 1414.42 2570.19 1428.72 2550.74C1451.44 2519.85 1444.37 2476.35 1439.39 2440.97C1436.39 2431.83 1434.93 2420.84 1433.29 2411.23C1459.37 2367.29 1475.1 2342.8 1463.04 2288.75C1451.28 2236.03 1422.48 2203.78 1377.75 2175.09C1301.11 2139.33 1273.22 2138.68 1202.87 2186.94C1167.57 2178.96 1132.82 2165.59 1097.64 2155.53C1079.6 2150.37 1055.34 2148.73 1042.73 2144.31C1034.59 2134.87 1044.31 2125.43 1051 2117.92C1080.8 2081.03 1110.44 2052.42 1151.32 2027.98Z" fill="#04D3B4"/>
<path d="M1709.92 2127.39C1742.24 2158.08 1781.45 2252.22 1789.09 2297.41C1796.95 2330.21 1803.32 2360.4 1806.5 2394.08C1815.37 2487.88 1788.06 2603.08 1738.26 2683.84C1689.45 2761.58 1620.31 2824.5 1538.31 2865.76C1531.87 2869.06 1502.35 2884.31 1497.51 2884.73C1390.81 2946.76 1171.08 2953 1048.5 2947.04C1019.59 2945.63 895.202 2934.41 876.532 2914.47C878.782 2905.93 919.873 2865.31 930.203 2852.48C946.063 2827.9 959.912 2792.84 975.052 2772.8C994.842 2774.84 1020.51 2781.13 1041.04 2783.52C1131.76 2794.09 1167.45 2790.52 1248.65 2757.58C1251.93 2756.25 1255.13 2754.76 1258.25 2753.1C1284.96 2739.07 1299.31 2725.33 1307.72 2696.69C1309.35 2710.47 1305.56 2715.43 1304.98 2728.6L1306.87 2728.52C1308.72 2722.63 1324.01 2693.07 1328.61 2681.75C1334.64 2681.24 1336.5 2681.52 1342.03 2679.05C1341.23 2675.73 1325.18 2663.35 1320.87 2658.34C1337.21 2666.06 1360.37 2678.41 1377.32 2682.42C1451.73 2700.03 1570.72 2710.19 1611.73 2787.38C1613.06 2788.7 1614.39 2790.02 1615.72 2791.33C1630.59 2806.41 1664.47 2752.56 1672.08 2743.73C1678.57 2736.2 1684.04 2733.04 1689.19 2727.59C1768.76 2643.36 1807.56 2476.45 1790.61 2364.52C1785.37 2375.51 1782.15 2391.28 1779.09 2403.45C1781.1 2387.53 1786.64 2365 1788.29 2350.75C1793.95 2301.79 1754.4 2198.46 1724.94 2162.64C1720.68 2150.42 1715.29 2139.15 1709.92 2127.39Z" fill="#078D85"/>
<path d="M1320.87 2658.34C1337.21 2666.06 1360.37 2678.41 1377.32 2682.42C1451.73 2700.03 1570.72 2710.19 1611.73 2787.38C1614.14 2792.74 1617.83 2800.37 1619.72 2805.67C1565.13 2850.07 1551.76 2859.23 1482.64 2861.13C1412.91 2863.05 1350.76 2861.37 1285.26 2831.43C1271.78 2825.27 1207.14 2794.92 1202.14 2782.69C1206.01 2776.92 1206.66 2778.2 1214.57 2775C1220.28 2774.19 1240 2764.95 1247.74 2762.04L1248.65 2757.58C1251.93 2756.25 1255.13 2754.76 1258.25 2753.1C1284.96 2739.07 1299.31 2725.33 1307.72 2696.69C1309.35 2710.47 1305.56 2715.43 1304.98 2728.6L1306.87 2728.52C1308.72 2722.63 1324.01 2693.07 1328.61 2681.75C1334.64 2681.24 1336.5 2681.52 1342.03 2679.05C1341.23 2675.73 1325.18 2663.35 1320.87 2658.34Z" fill="#04D3B4"/>
<path d="M1247.74 2762.04C1261.61 2759.17 1277.74 2749.56 1288.97 2740.92C1286.41 2766.12 1230.87 2792.99 1210.66 2783.39L1210.04 2780.62L1214.57 2775C1220.28 2774.19 1240 2764.95 1247.74 2762.04Z" fill="#49E6CE"/>
<path d="M975.992 2776.98C1002.52 2780.17 1027.66 2785.74 1054.12 2788.91C1093.52 2793.63 1130.15 2792.21 1169.42 2789.98C1198 2826.45 1193.67 2861.7 1155.53 2890.18C1092.02 2921.83 1030.59 2919.68 960.902 2925.49C946.312 2926.71 896.622 2920.72 887.162 2911.58C887.572 2902.84 923.082 2868.42 932.462 2855.97L934.302 2853.5C958.992 2819.23 958.152 2805.85 975.992 2776.98Z" fill="#04D3B4"/>
<path d="M930.203 2852.48L934.302 2853.5L932.463 2855.97C923.083 2868.42 887.572 2902.84 887.162 2911.58C896.622 2920.72 946.312 2926.71 960.902 2925.49C1030.59 2919.68 1092.02 2921.83 1155.53 2890.18C1129.25 2921.34 1025.68 2923.92 983.973 2930.76C994.733 2937.46 1007.03 2932.17 1019.73 2933.24C1075.58 2937.94 1129.82 2933.33 1185.51 2930C1203.12 2928.95 1222.4 2931.43 1239.73 2928.43L1231.24 2926.67C1299.18 2928.55 1357.05 2915.41 1422.13 2898C1437.73 2893.83 1481.8 2881.06 1493.97 2880.92L1497.51 2884.73C1390.81 2946.76 1171.08 2953 1048.5 2947.04C1019.59 2945.63 895.202 2934.41 876.532 2914.47C878.782 2905.93 919.873 2865.31 930.203 2852.48Z" fill="#069F8C"/>
<path d="M1709.92 2127.39C1742.24 2158.08 1781.45 2252.22 1789.09 2297.41C1786.61 2321.49 1800.36 2369.89 1802.05 2399.09C1809.84 2533.8 1760.07 2684.55 1657.08 2774.86C1644.97 2785.54 1632.51 2795.81 1619.72 2805.67C1617.83 2800.37 1614.14 2792.74 1611.73 2787.38C1613.06 2788.7 1614.39 2790.02 1615.72 2791.33C1630.59 2806.41 1664.47 2752.56 1672.08 2743.73C1678.57 2736.2 1684.04 2733.04 1689.19 2727.59C1768.76 2643.36 1807.56 2476.45 1790.61 2364.52C1785.37 2375.51 1782.15 2391.28 1779.09 2403.45C1781.1 2387.53 1786.64 2365 1788.29 2350.75C1793.95 2301.79 1754.4 2198.46 1724.94 2162.64C1720.68 2150.42 1715.29 2139.15 1709.92 2127.39Z" fill="#08A690"/>
<path d="M1779.09 2403.45C1782.15 2391.28 1785.37 2375.51 1790.61 2364.52C1807.56 2476.45 1768.76 2643.36 1689.19 2727.59C1684.04 2733.04 1678.57 2736.2 1672.08 2743.73C1664.47 2752.56 1630.59 2806.41 1615.72 2791.33C1614.39 2790.02 1613.06 2788.7 1611.73 2787.38C1570.72 2710.19 1451.73 2700.03 1377.32 2682.42C1360.37 2678.41 1337.21 2666.06 1320.87 2658.34C1314.4 2655.26 1305.63 2647.55 1300.6 2642.33C1302.71 2641.39 1306.26 2639.54 1308.57 2640.84C1405.42 2695.62 1545.02 2699.96 1641.31 2638.88C1711.49 2594.36 1763.05 2487.69 1779.09 2403.45Z" fill="#069F8C"/>
<path d="M1151.32 2027.98C1251.88 1969.63 1379.59 1966.16 1489.68 1995.68C1562.59 2015.52 1629.92 2051.96 1686.41 2102.13C1694.61 2110.48 1702.61 2118.24 1709.92 2127.39C1715.29 2139.15 1720.68 2150.42 1724.94 2162.64C1717.57 2159.46 1682.94 2129.22 1671.26 2121.59C1604.21 2078.34 1528.94 2049.42 1450.17 2036.66C1334.38 2016.84 1171.23 2029.12 1078.87 2110.47C1071.73 2116.76 1057.48 2137.67 1048.55 2135.83C1046.65 2127.82 1048.43 2127.15 1051 2117.92C1080.8 2081.03 1110.44 2052.42 1151.32 2027.98Z" fill="#72F8E6"/>
<path d="M1151.32 2027.98C1251.88 1969.63 1379.59 1966.16 1489.68 1995.68C1562.59 2015.52 1629.92 2051.96 1686.41 2102.13C1687.98 2109.73 1689.27 2109.75 1687.11 2115.93C1674.24 2117.68 1642.04 2083.33 1625.22 2074.09C1573.75 2046.13 1508.92 2017.54 1450.51 2007.37C1415.44 2001.26 1320.35 1995.98 1288.08 1997.81C1266.59 1999.03 1161.15 2032.58 1146.41 2045.29L1143.98 2044.5V2041.13C1148.58 2035.99 1149.03 2034.24 1151.32 2027.98Z" fill="#C7FDF6"/>
<path d="M1307.72 2696.69C1307.42 2631.48 1239.61 2600.84 1193.26 2568.59C1181 2560.05 1163.6 2549.05 1155.83 2536.11L1156.85 2532.83C1175.93 2525.61 1313.51 2542.87 1342.34 2529.78C1345.21 2528.47 1371.9 2524.43 1375.68 2524.93C1377.71 2530.29 1377.52 2527.52 1374.96 2533.46C1362.61 2539.12 1352.24 2548.76 1341.61 2551.78L1339.18 2549.84C1346.53 2545.69 1349.75 2546.16 1355.31 2540.3L1353.38 2538.24C1331.13 2541.26 1238.48 2551.57 1222.04 2541.41L1219.88 2544.23C1243.55 2551.5 1314.23 2536.6 1328.13 2551.45L1326.38 2553.49C1301.8 2553.09 1277.4 2552.83 1252.98 2550.1C1238.74 2548.5 1222.67 2558.01 1207.67 2550.84L1204.97 2553.43C1213.34 2564.79 1247.11 2578.26 1262.84 2593.73C1278.2 2608.85 1288.83 2632.84 1300.6 2642.33C1305.63 2647.55 1314.4 2655.26 1320.87 2658.34C1325.18 2663.35 1341.23 2675.73 1342.03 2679.05C1336.5 2681.52 1334.64 2681.24 1328.61 2681.75C1324.01 2693.07 1308.72 2722.63 1306.87 2728.52L1304.98 2728.6C1305.56 2715.43 1309.35 2710.47 1307.72 2696.69Z" fill="#49E6CE"/>
<path d="M1269.11 2332.94C1287.1 2345.54 1356.29 2421.01 1338.66 2440.73C1309.58 2451.82 1212.06 2436 1174.64 2437.38C1139.75 2438.67 1120.1 2432.44 1088.61 2462.34C1070.63 2479.43 1061.98 2507.05 1062.29 2531.25C1063.42 2618.74 1156.74 2638.82 1211.07 2689.74C1213.19 2696.2 1213.12 2693.05 1211.44 2699.52C1209.03 2701.4 1206.71 2702.81 1203.78 2703.74C1192.58 2707.28 1179.83 2707.78 1168.21 2709.03C1078.26 2718.68 983.303 2693.57 902.043 2655.01C801.803 2607.45 703.713 2523.51 666.453 2416.54C652.773 2377.3 647.923 2339.86 667.123 2301.38C686.023 2263.51 723.733 2236.62 763.413 2223.95C787.073 2216.39 811.863 2213.48 836.633 2213.37C886.653 2213.15 1096.03 2237.99 1129.87 2257.13C1130.53 2257.5 1131.13 2257.96 1131.75 2258.37C1179.82 2273.72 1231.09 2299.28 1269.11 2332.94Z" fill="#49E6CE"/>
<path d="M675.283 2312.32L672.663 2309.59C673.143 2294.94 685.213 2282.61 697.303 2276.23C714.713 2267.05 750.563 2240.63 770.483 2239.04C889.273 2229.57 1010.98 2252.97 1126.34 2278.81C1159.49 2286.23 1195.54 2311.75 1224.85 2325.33L1238.71 2334.66C1256.24 2349.18 1329.24 2398.39 1313.49 2425.47C1281.31 2448.47 1137.05 2393.53 1094.11 2437.79C1072.87 2459.69 1057.04 2476.17 1048.31 2508.13C1043.81 2523.78 1053.05 2553.2 1056.72 2569.59C1062.02 2593.27 1098.41 2632.68 1119.55 2644.84C1147.89 2661.13 1169.12 2664.62 1192.27 2690.67L1192.1 2695.42C1183.19 2694.49 1178.45 2682.96 1167.99 2677.85C1133.45 2663.11 1113.61 2650.56 1081.13 2633.29C1060.7 2622.44 1028.74 2614.47 1005.59 2601.65C919.203 2553.8 825.413 2485.43 758.413 2413.25C735.013 2388.04 711.233 2344.65 689.973 2316.93C685.793 2311.47 681.513 2312.54 675.283 2312.32Z" fill="#04D3B4"/>
<path d="M675.283 2312.32C681.513 2312.54 685.793 2311.47 689.973 2316.93C711.233 2344.65 735.013 2388.04 758.413 2413.25C825.413 2485.43 919.203 2553.8 1005.59 2601.65C1028.74 2614.47 1060.7 2622.44 1081.13 2633.29C1113.61 2650.56 1133.45 2663.11 1167.99 2677.85C1171.87 2686.76 1175.45 2690.13 1173.46 2697.75C1160.94 2704.61 1128.81 2698.35 1115.45 2695.04C1109.7 2697.59 1105.36 2699.65 1098.83 2698.72C1097.26 2697.24 1093.67 2693.41 1091.5 2693.24C962.753 2682.95 830.693 2615 744.113 2519.6C727.813 2501.63 701.743 2457.39 685.133 2437.5C672.153 2421.95 670.613 2333.45 675.283 2312.32Z" fill="#069F8C"/>
<path d="M1131.75 2258.37C1179.82 2273.72 1231.09 2299.28 1269.11 2332.94C1264.1 2337.14 1264.34 2336.91 1258.22 2339.28C1247.31 2338.11 1246.72 2335.85 1238.71 2334.66L1224.85 2325.33C1206.46 2294.13 1142.88 2277.38 1131.75 2258.37Z" fill="#72F8E6"/>
<path d="M2256.24 896.95C2293.52 891.93 2347.51 899.77 2382.44 894.16C2433.79 885.91 2452.66 792.92 2506.66 768.16C2530.72 754.39 2566.94 739.18 2579.52 713.75C2591.07 690.39 2557.38 566.54 2588.18 563.54C2617.13 593.12 2618.34 662.95 2618.56 702.74C2619.27 829.85 2564.51 965.16 2487.96 1065.56C2437.22 1132.1 2328.06 1237.71 2240.45 1237.84C2164.09 1237.96 2068.71 1154 2077.05 1072.98C2083.56 971.79 2161.3 910.74 2256.24 896.95Z" fill="#04D3B4"/>
<path d="M2588.18 563.54C2617.13 593.12 2618.34 662.95 2618.56 702.74C2619.27 829.85 2564.51 965.16 2487.96 1065.56C2437.22 1132.1 2328.06 1237.71 2240.45 1237.84C2164.09 1237.96 2068.71 1154 2077.05 1072.98C2083.56 971.79 2161.3 910.74 2256.24 896.95C2285.95 897.22 2336.72 896.92 2364.13 903.42L2364.64 906.12L2361.24 908.84C2359.38 908.95 2354.6 909.13 2352.69 909.59C2286.62 925.57 2238.7 903.29 2176.32 945.92C2138.38 971.84 2115.83 1004.6 2105.56 1049.73C2094.13 1099.96 2105.77 1140.8 2142.69 1176.21C2149.19 1182.45 2157.05 1192.86 2164.82 1198.18C2170.61 1202.14 2190.62 1204.04 2193.15 1207.91C2186.34 1209.36 2184.32 1209.21 2177.56 1209.2C2190.93 1215.01 2209.14 1222.8 2223.56 1223.93C2228.59 1211.67 2241.14 1215.42 2251.97 1217.58C2262.48 1219.68 2326.79 1197.12 2330.73 1192.83C2360.98 1159.81 2404.28 1144.32 2434.22 1110.51C2505.07 1030.48 2563.59 930.9 2592.4 827.63C2609.75 765.41 2606.55 693 2600.42 629.58C2598.49 609.65 2572.27 578.31 2588.18 563.54Z" fill="#49E6CE"/>
<path d="M316.873 2341.1C292.943 2338.72 258.413 2322.31 235.76 2314.23C65.2297 2253.44 86.5587 2051.87 98.4047 1906.94C99.6057 1892.25 102.815 1853.06 117.939 1847.22C131.371 1852.12 173.23 1908.98 191.168 1925.46C226.246 1957.7 247.353 1973.28 285.723 2000.22C349.953 2036.15 411.883 2075.53 484.723 2093.5C494.733 2097.76 525.863 2098.94 528.333 2111.72C534.283 2142.54 538.753 2177.26 541.663 2208.34C545.153 2245.56 564.893 2310.61 557.303 2345.42C530.263 2367.97 352.843 2354.4 316.873 2341.1Z" fill="#04D3B4"/>
<path d="M285.723 2000.22C349.953 2036.15 411.883 2075.53 484.723 2093.5C494.733 2097.76 525.863 2098.94 528.333 2111.72C534.283 2142.54 538.753 2177.26 541.663 2208.34C545.153 2245.56 564.893 2310.61 557.303 2345.42C530.263 2367.97 352.843 2354.4 316.873 2341.1C329.813 2340.4 341.253 2340.85 354.183 2341.25C338.803 2327.41 251.873 2305.38 229.937 2297.09C197.702 2282.21 160.742 2245.67 138.172 2219.01C125.945 2204.57 106.257 2128.5 113.814 2111.9C128.583 2136.59 176 2205.57 198.421 2223.25C263.393 2274.48 359.563 2306.9 439.533 2326.14C459.743 2331 534.793 2346.28 550.793 2341.9C554.903 2337.69 555.993 2336.94 555.623 2329.16C554.463 2304.8 548.763 2277.37 544.423 2253.35C538.503 2221.93 533.753 2190.3 530.193 2158.53C529.033 2148.32 526.253 2125.46 527.413 2115.99C525.803 2112.8 523.003 2106.68 519.483 2105.97C501.703 2102.4 478.433 2096.07 461.713 2090.82C420.643 2077.94 315.853 2028.54 285.723 2000.22Z" fill="#08A690"/>
<path d="M316.873 2341.1C292.943 2338.72 258.413 2322.31 235.76 2314.23C65.2297 2253.44 86.5587 2051.87 98.4047 1906.94C99.6057 1892.25 102.815 1853.06 117.939 1847.22C131.371 1852.12 173.23 1908.98 191.168 1925.46C226.246 1957.7 247.353 1973.28 285.723 2000.22C315.853 2028.54 420.643 2077.94 461.713 2090.82C478.433 2096.07 501.703 2102.4 519.483 2105.97C523.003 2106.68 525.803 2112.8 527.413 2115.99C525.503 2122.45 525.423 2123.15 522.083 2129.33C500.193 2114.9 445.273 2100.61 417.743 2090.91C333.583 2061.28 247.593 2018.62 179.076 1961.13C160.507 1945.55 131.013 1907.96 117.162 1888.13C114.255 1893.32 111.444 1898.57 108.73 1903.86L107.932 1897.08L106.536 1896.29C92.6077 1954.43 98.9357 2031.69 99.9747 2091.56C100.037 2095.15 105.828 2134.81 106.395 2135.91C106.398 2135.89 106.399 2135.88 106.405 2135.86C108.614 2130.27 106.469 2126.05 107.359 2120.59C108.221 2115.31 109.737 2114.64 113.814 2111.9C106.257 2128.5 125.945 2204.57 138.172 2219.01C160.742 2245.67 197.702 2282.21 229.937 2297.09C251.873 2305.38 338.803 2327.41 354.183 2341.25C341.253 2340.85 329.813 2340.4 316.873 2341.1Z" fill="#49E6CE"/>
<path d="M184.111 2096.44C242.201 2087.55 320.353 2151.02 330.993 2208.07C335.773 2233.69 312.273 2241.19 299.533 2258.28L296.943 2260.73C260.683 2269.68 185.101 2207.98 171.241 2174.35C161.555 2150.85 159.129 2140.85 161.403 2116.5C168.753 2106.21 172.623 2101.72 184.111 2096.44Z" fill="#49E6CE"/>
<path d="M197.989 2422.94C196.976 2415.14 196.108 2408.86 199.504 2402.55C210.506 2397.98 236.083 2411.67 249.183 2416.8C367.243 2451.68 462.643 2454.1 583.183 2438.92C604.193 2501.54 609.833 2504.66 641.123 2559.29C618.123 2600.06 534.293 2640.56 490.193 2653.21C457.993 2662.45 407.673 2667.56 375.253 2659.28C365.353 2657.99 347.643 2649.46 338.763 2644.35C258.613 2598.16 220.531 2508.33 197.989 2422.94Z" fill="#49E6CE"/>
<path d="M217.725 2430.14C231.685 2436.18 243.641 2440.68 257.993 2445.8C325.353 2472.64 422.563 2475.89 494.683 2471.5C521.713 2469.86 562.393 2461.85 586.803 2467.7C591.533 2478.73 630.193 2555.07 630.223 2555.52L628.213 2559.08C624.073 2559.82 625.413 2560.32 622.113 2559.21C598.313 2559.41 571.483 2575.44 548.913 2582.45C483.953 2602.64 415.643 2616.13 350.733 2589.12C307.823 2571.26 281.273 2557.28 249.833 2523.65C237.972 2506.67 205.755 2449.87 217.725 2430.14Z" fill="#04D3B4"/>
<path d="M354.793 2534.46C379.293 2531.21 398.543 2536.56 421.953 2539.93C458.843 2545.24 474.313 2578.55 435.343 2594.65C413.963 2598.16 398.503 2596.17 377.653 2591.14C346.663 2583.67 304.233 2556.11 354.793 2534.46Z" fill="#49E6CE"/>
<path d="M622.113 2559.21C612.693 2567.18 603.953 2580.63 596.653 2586.59C560.143 2616.39 460.523 2662.86 415.063 2646.05C411.723 2648.05 411.143 2648.27 407.613 2649.81C377.703 2644.27 345.153 2641.18 323.163 2619.63C305.623 2602.44 251.383 2546.24 249.833 2523.65C281.273 2557.28 307.823 2571.26 350.733 2589.12C415.643 2616.13 483.953 2602.64 548.913 2582.45C571.483 2575.44 598.313 2559.41 622.113 2559.21Z" fill="#08A690"/>
<path d="M197.989 2422.94C196.976 2415.14 196.108 2408.86 199.504 2402.55C210.506 2397.98 236.083 2411.67 249.183 2416.8L252.553 2419.12C256.773 2422 258.673 2422.99 263.213 2425.21L245.317 2425.83L243.912 2427.46C250.013 2434.09 253.763 2437.65 257.993 2445.8C243.641 2440.68 231.685 2436.18 217.725 2430.14C210.719 2426.03 208.349 2428.52 197.989 2422.94Z" fill="#72F8E6"/>
<path d="M375.253 2659.28C377.143 2656.91 378.523 2654.99 379.933 2652.28L376.333 2649.34C380.563 2647.41 407.683 2654.46 416.233 2654.91L427.943 2655.92C424.763 2659.14 396.153 2659.56 390.053 2659.61C385.123 2659.67 380.183 2659.57 375.253 2659.28Z" fill="#16BEA5"/>
<path d="M1803.81 1458.66C1803.99 1448.57 1807.26 1437.68 1817.91 1434.44C1822.99 1432.9 1827.27 1424.13 1831.63 1421.09C1839.81 1415.36 1847.91 1410.81 1855.51 1403.76C1913.25 1350.14 1965.42 1291.01 2005.48 1222.89C2010.87 1213.71 2023.45 1188.01 2031.91 1184.27C2042.62 1190.32 2064.93 1222.67 2075.12 1234.42C2083.62 1244.07 2092.72 1253.18 2102.37 1261.68C2123.89 1280.76 2159.52 1288.74 2171.24 1298.82C2170.7 1321.73 2035.92 1454.12 2013.16 1476.05C1995.09 1498.58 1794.59 1661.94 1773.08 1659.14C1771.19 1655.78 1770.72 1651.9 1771.89 1648.28C1787.81 1599.03 1797.95 1548.83 1800.16 1496.99C1800.69 1484.79 1801.58 1470.87 1803.81 1458.66Z" fill="#04D3B4"/>
<path d="M1874.15 1403.42C1912.4 1388.62 1954.45 1326.21 1966.57 1323.22C1971.58 1327.62 1981.34 1418.55 1981.34 1429.62C1979.03 1442.59 1974.92 1482.73 1971.79 1490.26C1961.78 1514.42 1901.37 1545.4 1886.12 1568.93C1900.74 1561.96 1903.06 1562.34 1915.79 1551.88C1942.35 1530.06 1980.64 1488.62 2013.16 1476.05C1995.09 1498.58 1794.59 1661.94 1773.08 1659.14C1771.19 1655.78 1770.72 1651.9 1771.89 1648.28C1787.81 1599.03 1797.95 1548.83 1800.16 1496.99C1800.69 1484.79 1801.58 1470.87 1803.81 1458.66C1805.62 1486.94 1804.44 1526.63 1804.42 1555.76C1806.09 1545.75 1806.43 1543.46 1810.52 1534.27L1810.54 1535.17C1811.14 1529.37 1816.58 1520.71 1817.3 1515.2C1819.27 1500.23 1814.18 1482.39 1820.51 1468.17C1822.52 1463.65 1822.47 1464.99 1822.41 1459.85L1818.53 1462.59C1817.6 1457.43 1817.85 1459.4 1819.71 1453.78C1839.26 1446.15 1858.54 1419 1874.15 1403.42Z" fill="#08A690"/>
<path d="M1823.95 1616.47L1826.09 1616.56C1817.59 1628.28 1791.54 1649.91 1776.88 1654.88C1779.92 1616.65 1794.81 1627.43 1820.82 1617.66L1823.95 1616.47Z" fill="#16BEA5"/>
<path d="M1803.81 1458.66C1803.99 1448.57 1807.26 1437.68 1817.91 1434.44C1822.99 1432.9 1827.27 1424.13 1831.63 1421.09C1839.81 1415.36 1847.91 1410.81 1855.51 1403.76C1913.25 1350.14 1965.42 1291.01 2005.48 1222.89C2010.87 1213.71 2023.45 1188.01 2031.91 1184.27C2042.62 1190.32 2064.93 1222.67 2075.12 1234.42C2083.62 1244.07 2092.72 1253.18 2102.37 1261.68C2123.89 1280.76 2159.52 1288.74 2171.24 1298.82C2170.7 1321.73 2035.92 1454.12 2013.16 1476.05C1980.64 1488.62 1942.35 1530.06 1915.79 1551.88C1903.06 1562.34 1900.74 1561.96 1886.12 1568.93C1901.37 1545.4 1961.78 1514.42 1971.79 1490.26C1974.92 1482.73 1979.03 1442.59 1981.34 1429.62C1981.31 1442.87 1980.36 1464.94 1983.74 1476.89L1987.23 1478.77C1994.39 1477.41 2014.37 1462.76 2018.79 1457.2C2039.48 1431.14 2061.1 1404.01 2084.75 1380.45C2099.19 1366.06 2134.41 1316.89 2151.08 1309.76L2152.09 1305.62C2141.1 1280.65 2135.23 1293.85 2120.59 1289.08C2099.78 1282.29 2064.27 1244.25 2050.18 1226.48C2046.47 1221.79 2046.3 1221.12 2042.17 1217.52C2033.66 1217.53 2020.9 1242.22 2015.64 1250.55C1977.24 1311.44 1924.86 1354.59 1874.15 1403.42C1858.54 1419 1839.26 1446.15 1819.71 1453.78C1817.85 1459.4 1817.6 1457.43 1818.53 1462.59L1822.41 1459.85C1822.47 1464.99 1822.52 1463.65 1820.51 1468.17C1814.18 1482.39 1819.27 1500.23 1817.3 1515.2C1816.58 1520.71 1811.14 1529.37 1810.54 1535.17L1810.52 1534.27C1806.43 1543.46 1806.09 1545.75 1804.42 1555.76C1804.44 1526.63 1805.62 1486.94 1803.81 1458.66Z" fill="#49E6CE"/>
<path d="M601.193 2708.33C633.053 2688.81 663.543 2674.18 691.603 2647.9C699.663 2640.35 705.233 2633.32 715.213 2633.54C743.633 2652.29 765.023 2676.64 797.493 2695.98C829.103 2714.8 856.103 2726.89 887.062 2743.74C837.792 2867.32 717.903 2916.31 600.113 2862.23C551.093 2839.73 481.513 2802.57 444.203 2763.76L440.323 2759.56L440.713 2755.67C450.033 2748.55 472.052 2748.1 484.142 2747.16C524.412 2738.35 563.643 2725.34 601.193 2708.33Z" fill="#04D3B4"/>
<path d="M715.213 2633.54C743.633 2652.29 765.023 2676.64 797.493 2695.98C829.103 2714.8 856.103 2726.89 887.063 2743.74C837.793 2867.32 717.903 2916.31 600.113 2862.23C551.093 2839.73 481.513 2802.57 444.203 2763.76C478.363 2776.29 481.783 2764.61 516.153 2771.57C530.283 2773.64 542.023 2775.23 555.413 2779.55C607.783 2796.44 648.633 2830.94 706.183 2821.11C723.863 2818.09 736.863 2813.27 753.603 2808.77C794.163 2797.87 817.063 2791.17 853.293 2770.22C865.103 2763.53 872.583 2756.2 882.293 2747.1C849.183 2732.35 817.333 2714.91 787.053 2694.98C778.213 2689.27 747.493 2666.5 743.103 2664.73C733.643 2653.98 724.033 2644.98 715.213 2633.54Z" fill="#069F8C"/>
<path d="M715.213 2633.54C743.633 2652.29 765.023 2676.64 797.493 2695.98C829.103 2714.8 856.103 2726.89 887.063 2743.74C837.793 2867.32 717.903 2916.31 600.113 2862.23C551.093 2839.73 481.513 2802.57 444.203 2763.76C478.363 2776.29 481.783 2764.61 516.153 2771.57C498.533 2770.47 491.143 2770.91 473.433 2772.62C505.223 2786.68 507.373 2797.09 532.093 2811.93C600.983 2853.29 687.253 2886.16 766.803 2855.89C801.453 2842.98 816.913 2818.81 840.693 2792.64C845.653 2787.18 855.993 2779.27 858.083 2772.9L853.293 2770.22C865.103 2763.53 872.583 2756.2 882.293 2747.1C849.183 2732.35 817.333 2714.91 787.053 2694.98C778.213 2689.27 747.493 2666.5 743.103 2664.73C733.643 2653.98 724.033 2644.98 715.213 2633.54Z" fill="#08A690"/>
<path d="M601.193 2708.33C633.053 2688.81 663.543 2674.18 691.603 2647.9C699.663 2640.35 705.233 2633.32 715.213 2633.54C724.033 2644.98 733.643 2653.98 743.103 2664.73C716.253 2665.13 709.523 2684.08 680.353 2697.94C617.983 2739.04 514.813 2770.58 440.223 2759.41C453.103 2755.24 475.223 2751.38 484.143 2747.16C524.413 2738.35 563.643 2725.34 601.193 2708.33Z" fill="#49E6CE"/>
<path d="M681.143 2758.16C762.293 2751.68 764.003 2811.02 696.193 2817.2C682.263 2817.55 655.313 2818.16 645.063 2810.13C603.323 2777.43 661.183 2762.55 681.143 2758.16Z" fill="#49E6CE"/>
<path d="M1836.62 2718.14C1882.09 2715.67 1930.06 2744.85 1961.72 2775.26C1995.32 2807.54 2041.44 2865.12 1996.84 2908.15C1970.34 2933.71 1939.54 2929.94 1905.73 2932.08C1873.27 2933.33 1840.18 2932.8 1807.63 2932.75C1775.98 2932.42 1652.09 2936.74 1631.93 2931.38L1630.5 2928.76C1638.44 2914.3 1696.69 2875.56 1716.03 2858.17C1741.32 2835.45 1764.92 2810.92 1786.65 2784.78C1802.17 2766.08 1820.47 2727.1 1836.62 2718.14Z" fill="#16BEA5"/>
<path d="M1850.87 2733.95C1873.43 2727.55 1927.47 2757.34 1945.1 2772.85C1966.62 2791.77 1998.53 2825.48 2003.1 2855.02C2004 2860.82 2004.33 2863.32 2006.16 2869.27L2006.81 2871.34C1998.65 2881.68 1887.16 2868.75 1875.13 2876.56C1832.39 2875.44 1750.59 2879.54 1711.55 2873.76C1733.11 2850.68 1756.19 2829.5 1777.57 2805.34C1794.8 2785.88 1826.45 2734.88 1850.87 2733.95Z" fill="#04D3B4"/>
<path d="M1918.95 2878.64C1932.19 2877.2 1994.11 2874.33 2000.41 2884.62C1992.35 2897.34 1975.55 2913.2 1959.67 2913.58C1944.8 2913.94 1923.94 2919.04 1910.64 2918.32C1862.56 2915.74 1815.69 2920.27 1767.75 2920.61L1766.16 2921.93C1750.89 2917.55 1724.37 2920.19 1706.32 2918.53C1696.74 2917.65 1683.61 2915.25 1675.91 2914.61L1673.05 2914.4C1673.74 2906.07 1692.1 2903.58 1693.83 2892.01C1696.32 2875.37 1729.99 2878.58 1744.33 2878.53C1802.4 2878.36 1860.75 2878.54 1918.95 2878.64Z" fill="#069F8C"/>
<path d="M2078.55 911.51C2084.34 868.18 2095.63 825.76 2112.16 785.3C2143.74 707.62 2190.21 642.93 2254.54 589.46C2266.42 579.59 2282.88 564.37 2296.64 558.52L2299.02 559.7C2298.79 573.23 2279.96 586.15 2272.99 599.28C2252.49 635.97 2269.66 674.13 2281.39 710.17C2281.99 722.94 2280.12 746.5 2275.94 758.03C2258.01 807.43 2263.16 821.98 2210.4 832.97C2170.79 845.15 2130.97 857.66 2102.46 889.6C2096.03 896.39 2085.74 905.07 2078.55 911.51Z" fill="#16BEA5"/>
<path d="M2078.55 911.51C2084.34 868.18 2095.63 825.76 2112.16 785.3C2143.74 707.62 2190.21 642.93 2254.54 589.46C2266.42 579.59 2282.88 564.37 2296.64 558.52L2299.02 559.7C2298.79 573.23 2279.96 586.15 2272.99 599.28C2252.49 635.97 2269.66 674.13 2281.39 710.17C2281.99 722.94 2280.12 746.5 2275.94 758.03C2258.01 807.43 2263.16 821.98 2210.4 832.97C2189.22 831.86 2187.77 833.4 2167.14 836.88L2175.15 832.81C2174.06 829.86 2174.82 831.4 2172.67 828.29L2174.25 824.96C2168.54 823.31 2171.33 823.14 2165.66 826.01L2164.84 827.62C2183.81 809.95 2224.97 822.64 2239.34 805.67C2248.2 795.21 2260.1 762.67 2267.37 748.49C2265.84 742.16 2263.81 741.51 2267.14 737.5C2275.93 726.91 2258.92 658.85 2251.39 654.49C2252.83 646.44 2254.44 641.81 2252.61 634.08C2249.73 631.45 2250.42 630.91 2246.77 631.59C2228.67 634.97 2214.44 659.16 2203.2 672.77C2161.6 723.14 2138.56 784.41 2112.05 843.25C2106.79 854.91 2110.54 871.78 2104.22 883.37C2103.24 885.13 2102.83 887.89 2102.46 889.6C2096.03 896.39 2085.74 905.07 2078.55 911.51Z" fill="#49E6CE"/>
<path d="M602.003 1990.25C602.413 1970.18 601.463 1920.61 608.303 1904.86C631.473 1887.67 671.843 1981.12 681.303 1997.99C706.353 2042.67 729.263 2091 757.663 2133.63L757.513 2141.57C750.223 2150.56 708.193 2160.3 693.663 2167.91C675.363 2177.51 646.033 2212.91 628.453 2211.31C620.753 2196.6 600.413 2008.6 602.003 1990.25Z" fill="#04D3B4"/>
<path d="M602.003 1990.25C602.413 1970.18 601.463 1920.61 608.303 1904.86C631.473 1887.67 671.843 1981.12 681.303 1997.99C706.353 2042.67 729.263 2091 757.663 2133.63C756.473 2140.32 756.433 2139.82 751.643 2144.75C749.013 2145.34 741.493 2146.26 739.953 2143.55C709.343 2089.65 682.653 2034.49 647.463 1983.28C640.043 1972.48 631.173 1940.53 619.643 1936.23C617.143 1939.56 616.123 1941.53 616.703 1946.08C621.953 1986.72 623.043 2021.7 620.953 2062.44L619.003 2056.15L617.693 2056.85L616.343 2066.3L614.553 2064.76C611.793 2039.08 605.203 2024.28 604.093 1993.53L602.003 1990.25Z" fill="#49E6CE"/>
<path d="M1268.28 2198.6C1400.83 2193.96 1434.7 2345.74 1407.78 2354.26L1401.99 2351.04C1377.77 2324.64 1365.17 2299.27 1334.09 2273.57C1309.12 2252.94 1274.78 2233.91 1252 2212.14C1249.17 2209.44 1250.19 2206.83 1250.66 2203.86C1255.51 2199.37 1261.41 2199.56 1268.28 2198.6Z" fill="#49E6CE"/>
</svg>
